<?xml version="1.0" encoding="utf-8"?>
<!-- Generator: Adobe Illustrator 15.0.0, SVG Export Plug-In . SVG Version: 6.00 Build 0)  -->
<!DOCTYPE svg PUBLIC "-//W3C//DTD SVG 1.1//EN" "http://www.w3.org/Graphics/SVG/1.1/DTD/svg11.dtd">
<svg version="1.1" id="Warstwa_1" xmlns="http://www.w3.org/2000/svg" xmlns:xlink="http://www.w3.org/1999/xlink" x="0px" y="0px"
	 width="538.582px" height="538.584px" viewBox="0 0 538.582 538.584" enable-background="new 0 0 538.582 538.584"
	 xml:space="preserve">
<g>
	
		<rect x="504.476" y="14.173" fill="#FFFFFF" stroke="#000000" stroke-linecap="round" stroke-linejoin="round" width="19.934" height="510.237"/>
	
		<rect x="344.573" y="14.173" fill="#FFFFFF" stroke="#000000" stroke-linecap="round" stroke-linejoin="round" width="19.934" height="510.237"/>
	
		<rect x="174.109" y="14.173" fill="#FFFFFF" stroke="#000000" stroke-linecap="round" stroke-linejoin="round" width="19.934" height="510.237"/>
	
		<rect x="14.174" y="14.173" fill="#FFFFFF" stroke="#000000" stroke-linecap="round" stroke-linejoin="round" width="19.934" height="510.237"/>
	<g>
		<g>
			
				<rect x="14.174" y="36.458" fill="#FFFFFF" stroke="#000000" stroke-linecap="round" stroke-linejoin="round" width="169.229" height="19.934"/>
			
				<rect x="14.174" y="81.03" fill="#FFFFFF" stroke="#000000" stroke-linecap="round" stroke-linejoin="round" width="169.229" height="19.934"/>
			
				<rect x="14.174" y="125.603" fill="#FFFFFF" stroke="#000000" stroke-linecap="round" stroke-linejoin="round" width="169.229" height="19.934"/>
			
				<rect x="14.174" y="170.176" fill="#FFFFFF" stroke="#000000" stroke-linecap="round" stroke-linejoin="round" width="169.229" height="19.934"/>
			
				<rect x="14.174" y="214.749" fill="#FFFFFF" stroke="#000000" stroke-linecap="round" stroke-linejoin="round" width="169.229" height="19.934"/>
			
				<rect x="14.174" y="259.321" fill="#FFFFFF" stroke="#000000" stroke-linecap="round" stroke-linejoin="round" width="169.229" height="19.935"/>
			
				<rect x="14.174" y="303.895" fill="#FFFFFF" stroke="#000000" stroke-linecap="round" stroke-linejoin="round" width="169.229" height="19.935"/>
			
				<rect x="14.174" y="348.468" fill="#FFFFFF" stroke="#000000" stroke-linecap="round" stroke-linejoin="round" width="169.229" height="19.934"/>
			
				<rect x="14.174" y="393.04" fill="#FFFFFF" stroke="#000000" stroke-linecap="round" stroke-linejoin="round" width="169.229" height="19.935"/>
			
				<rect x="14.174" y="437.613" fill="#FFFFFF" stroke="#000000" stroke-linecap="round" stroke-linejoin="round" width="169.229" height="19.935"/>
			
				<rect x="14.174" y="482.187" fill="#FFFFFF" stroke="#000000" stroke-linecap="round" stroke-linejoin="round" width="169.229" height="19.935"/>
		</g>
		<g>
			
				<rect x="184.677" y="36.458" fill="#FFFFFF" stroke="#000000" stroke-linecap="round" stroke-linejoin="round" width="169.228" height="19.934"/>
			
				<rect x="184.677" y="81.03" fill="#FFFFFF" stroke="#000000" stroke-linecap="round" stroke-linejoin="round" width="169.228" height="19.934"/>
			
				<rect x="184.677" y="125.603" fill="#FFFFFF" stroke="#000000" stroke-linecap="round" stroke-linejoin="round" width="169.228" height="19.934"/>
			
				<rect x="184.677" y="170.176" fill="#FFFFFF" stroke="#000000" stroke-linecap="round" stroke-linejoin="round" width="169.228" height="19.934"/>
			
				<rect x="184.677" y="214.749" fill="#FFFFFF" stroke="#000000" stroke-linecap="round" stroke-linejoin="round" width="169.228" height="19.934"/>
			
				<rect x="184.677" y="259.321" fill="#FFFFFF" stroke="#000000" stroke-linecap="round" stroke-linejoin="round" width="169.228" height="19.935"/>
			
				<rect x="184.677" y="303.895" fill="#FFFFFF" stroke="#000000" stroke-linecap="round" stroke-linejoin="round" width="169.228" height="19.935"/>
			
				<rect x="184.677" y="348.468" fill="#FFFFFF" stroke="#000000" stroke-linecap="round" stroke-linejoin="round" width="169.228" height="19.934"/>
			
				<rect x="184.677" y="393.04" fill="#FFFFFF" stroke="#000000" stroke-linecap="round" stroke-linejoin="round" width="169.228" height="19.935"/>
			
				<rect x="184.677" y="437.613" fill="#FFFFFF" stroke="#000000" stroke-linecap="round" stroke-linejoin="round" width="169.228" height="19.935"/>
			
				<rect x="184.677" y="482.187" fill="#FFFFFF" stroke="#000000" stroke-linecap="round" stroke-linejoin="round" width="169.228" height="19.935"/>
		</g>
		<g>
			
				<rect x="355.181" y="36.458" fill="#FFFFFF" stroke="#000000" stroke-linecap="round" stroke-linejoin="round" width="169.229" height="19.934"/>
			
				<rect x="355.181" y="81.03" fill="#FFFFFF" stroke="#000000" stroke-linecap="round" stroke-linejoin="round" width="169.229" height="19.934"/>
			
				<rect x="355.181" y="125.603" fill="#FFFFFF" stroke="#000000" stroke-linecap="round" stroke-linejoin="round" width="169.229" height="19.934"/>
			
				<rect x="355.181" y="170.176" fill="#FFFFFF" stroke="#000000" stroke-linecap="round" stroke-linejoin="round" width="169.229" height="19.934"/>
			
				<rect x="355.181" y="214.749" fill="#FFFFFF" stroke="#000000" stroke-linecap="round" stroke-linejoin="round" width="169.229" height="19.934"/>
			
				<rect x="355.181" y="259.321" fill="#FFFFFF" stroke="#000000" stroke-linecap="round" stroke-linejoin="round" width="169.229" height="19.935"/>
			
				<rect x="355.181" y="303.895" fill="#FFFFFF" stroke="#000000" stroke-linecap="round" stroke-linejoin="round" width="169.229" height="19.935"/>
			
				<rect x="355.181" y="348.468" fill="#FFFFFF" stroke="#000000" stroke-linecap="round" stroke-linejoin="round" width="169.229" height="19.934"/>
			
				<rect x="355.181" y="393.04" fill="#FFFFFF" stroke="#000000" stroke-linecap="round" stroke-linejoin="round" width="169.229" height="19.935"/>
			
				<rect x="355.181" y="437.613" fill="#FFFFFF" stroke="#000000" stroke-linecap="round" stroke-linejoin="round" width="169.229" height="19.935"/>
			
				<rect x="355.181" y="482.187" fill="#FFFFFF" stroke="#000000" stroke-linecap="round" stroke-linejoin="round" width="169.229" height="19.935"/>
		</g>
		
			<rect x="14.174" y="14.173" fill="#FFFFFF" stroke="#000000" stroke-linecap="round" stroke-linejoin="round" width="510.236" height="19.934"/>
		
			<rect x="14.174" y="58.746" fill="#FFFFFF" stroke="#000000" stroke-linecap="round" stroke-linejoin="round" width="510.236" height="19.934"/>
		
			<rect x="14.174" y="103.318" fill="#FFFFFF" stroke="#000000" stroke-linecap="round" stroke-linejoin="round" width="510.236" height="19.934"/>
		
			<rect x="14.174" y="147.891" fill="#FFFFFF" stroke="#000000" stroke-linecap="round" stroke-linejoin="round" width="510.236" height="19.934"/>
		
			<rect x="14.174" y="192.464" fill="#FFFFFF" stroke="#000000" stroke-linecap="round" stroke-linejoin="round" width="510.236" height="19.934"/>
		
			<rect x="14.174" y="237.037" fill="#FFFFFF" stroke="#000000" stroke-linecap="round" stroke-linejoin="round" width="510.236" height="19.934"/>
		
			<rect x="14.174" y="281.609" fill="#FFFFFF" stroke="#000000" stroke-linecap="round" stroke-linejoin="round" width="510.236" height="19.935"/>
		
			<rect x="14.174" y="326.183" fill="#FFFFFF" stroke="#000000" stroke-linecap="round" stroke-linejoin="round" width="510.236" height="19.935"/>
		
			<rect x="14.174" y="370.756" fill="#FFFFFF" stroke="#000000" stroke-linecap="round" stroke-linejoin="round" width="510.236" height="19.934"/>
		
			<rect x="14.174" y="415.329" fill="#FFFFFF" stroke="#000000" stroke-linecap="round" stroke-linejoin="round" width="510.236" height="19.934"/>
		
			<rect x="14.174" y="459.902" fill="#FFFFFF" stroke="#000000" stroke-linecap="round" stroke-linejoin="round" width="510.236" height="19.934"/>
		
			<rect x="14.174" y="504.476" fill="#FFFFFF" stroke="#000000" stroke-linecap="round" stroke-linejoin="round" width="510.236" height="19.934"/>
	</g>
</g>
</svg>
